<?xml version="1.0" encoding="us-ascii" standalone="no"?><svg xmlns="http://www.w3.org/2000/svg" xmlns:xlink="http://www.w3.org/1999/xlink" contentStyleType="text/css" height="322px" preserveAspectRatio="none" style="width:875px;height:322px;background:#FFFFFF;" version="1.1" viewBox="0 0 875 322" width="875px" zoomAndPan="magnify"><defs/><g><!--class Metric--><g id="elem_Metric"><rect codeLine="15" fill="#F1F1F1" height="32" id="Metric" rx="2.5" ry="2.5" style="stroke:#181818;stroke-width:0.5;" width="74" x="263" y="7"/><ellipse cx="278" cy="23" fill="#B4A7E5" rx="11" ry="11" style="stroke:#181818;stroke-width:1.0;"/><path d="M274.4277,19.2651 L274.4277,17.1069 L281.8071,17.1069 L281.8071,19.2651 L279.3418,19.2651 L279.3418,27.3418 L281.8071,27.3418 L281.8071,29.5 L274.4277,29.5 L274.4277,27.3418 L276.8931,27.3418 L276.8931,19.2651 Z " fill="#000000"/><text fill="#000000" font-family="sans-serif" font-size="14" font-style="italic" lengthAdjust="spacing" textLength="42" x="292" y="28.291">Metric</text></g><!--class Counter--><g id="elem_Counter"><rect codeLine="16" fill="#F1F1F1" height="32" id="Counter" rx="2.5" ry="2.5" style="stroke:#181818;stroke-width:0.5;" width="88" x="7" y="99"/><ellipse cx="22" cy="115" fill="#B4A7E5" rx="11" ry="11" style="stroke:#181818;stroke-width:1.0;"/><path d="M18.4277,111.2651 L18.4277,109.1069 L25.8071,109.1069 L25.8071,111.2651 L23.3418,111.2651 L23.3418,119.3418 L25.8071,119.3418 L25.8071,121.5 L18.4277,121.5 L18.4277,119.3418 L20.8931,119.3418 L20.8931,111.2651 Z " fill="#000000"/><text fill="#000000" font-family="sans-serif" font-size="14" font-style="italic" lengthAdjust="spacing" textLength="56" x="36" y="120.291">Counter</text></g><!--class Histogram--><g id="elem_Histogram"><rect codeLine="17" fill="#F1F1F1" height="32" id="Histogram" rx="2.5" ry="2.5" style="stroke:#181818;stroke-width:0.5;" width="103" x="130.5" y="99"/><ellipse cx="145.5" cy="115" fill="#B4A7E5" rx="11" ry="11" style="stroke:#181818;stroke-width:1.0;"/><path d="M141.9277,111.2651 L141.9277,109.1069 L149.3071,109.1069 L149.3071,111.2651 L146.8418,111.2651 L146.8418,119.3418 L149.3071,119.3418 L149.3071,121.5 L141.9277,121.5 L141.9277,119.3418 L144.3931,119.3418 L144.3931,111.2651 Z " fill="#000000"/><text fill="#000000" font-family="sans-serif" font-size="14" font-style="italic" lengthAdjust="spacing" textLength="71" x="159.5" y="120.291">Histogram</text></g><!--class Rate--><g id="elem_Rate"><rect codeLine="18" fill="#F1F1F1" height="32" id="Rate" rx="2.5" ry="2.5" style="stroke:#181818;stroke-width:0.5;" width="62" x="269" y="99"/><ellipse cx="284" cy="115" fill="#B4A7E5" rx="11" ry="11" style="stroke:#181818;stroke-width:1.0;"/><path d="M280.4277,111.2651 L280.4277,109.1069 L287.8071,109.1069 L287.8071,111.2651 L285.3418,111.2651 L285.3418,119.3418 L287.8071,119.3418 L287.8071,121.5 L280.4277,121.5 L280.4277,119.3418 L282.8931,119.3418 L282.8931,111.2651 Z " fill="#000000"/><text fill="#000000" font-family="sans-serif" font-size="14" font-style="italic" lengthAdjust="spacing" textLength="30" x="298" y="120.291">Rate</text></g><!--class Timer--><g id="elem_Timer"><rect codeLine="19" fill="#F1F1F1" height="32" id="Timer" rx="2.5" ry="2.5" style="stroke:#181818;stroke-width:0.5;" width="72" x="366" y="99"/><ellipse cx="381" cy="115" fill="#B4A7E5" rx="11" ry="11" style="stroke:#181818;stroke-width:1.0;"/><path d="M377.4277,111.2651 L377.4277,109.1069 L384.8071,109.1069 L384.8071,111.2651 L382.3418,111.2651 L382.3418,119.3418 L384.8071,119.3418 L384.8071,121.5 L377.4277,121.5 L377.4277,119.3418 L379.8931,119.3418 L379.8931,111.2651 Z " fill="#000000"/><text fill="#000000" font-family="sans-serif" font-size="14" font-style="italic" lengthAdjust="spacing" textLength="40" x="395" y="120.291">Timer</text></g><!--class Var--><g id="elem_Var"><rect codeLine="20" fill="#F1F1F1" height="32" id="Var" rx="2.5" ry="2.5" style="stroke:#181818;stroke-width:0.5;" width="67" x="473.5" y="99"/><ellipse cx="488.5" cy="115" fill="#B4A7E5" rx="11" ry="11" style="stroke:#181818;stroke-width:1.0;"/><path d="M484.9277,111.2651 L484.9277,109.1069 L492.3071,109.1069 L492.3071,111.2651 L489.8418,111.2651 L489.8418,119.3418 L492.3071,119.3418 L492.3071,121.5 L484.9277,121.5 L484.9277,119.3418 L487.3931,119.3418 L487.3931,111.2651 Z " fill="#000000"/><text fill="#000000" font-family="sans-serif" font-size="14" font-style="italic" lengthAdjust="spacing" textLength="23" x="502.5" y="120.291">Var</text><rect fill="#FFFFFF" height="16.1328" style="stroke:#181818;stroke-width:1.0;stroke-dasharray:2.0,2.0;" width="10" x="533.5" y="96"/><text fill="#000000" font-family="sans-serif" font-size="12" font-style="italic" lengthAdjust="spacing" textLength="8" x="534.5" y="108.6016">V</text></g><!--class ObjectVar--><g id="elem_ObjectVar"><rect codeLine="21" fill="#F1F1F1" height="32" id="ObjectVar" rx="2.5" ry="2.5" style="stroke:#181818;stroke-width:0.5;" width="99" x="220.5" y="191"/><ellipse cx="235.5" cy="207" fill="#B4A7E5" rx="11" ry="11" style="stroke:#181818;stroke-width:1.0;"/><path d="M231.9277,203.2651 L231.9277,201.1069 L239.3071,201.1069 L239.3071,203.2651 L236.8418,203.2651 L236.8418,211.3418 L239.3071,211.3418 L239.3071,213.5 L231.9277,213.5 L231.9277,211.3418 L234.3931,211.3418 L234.3931,203.2651 Z " fill="#000000"/><text fill="#000000" font-family="sans-serif" font-size="14" font-style="italic" lengthAdjust="spacing" textLength="67" x="249.5" y="212.291">ObjectVar</text></g><!--class LongVar--><g id="elem_LongVar"><rect codeLine="22" fill="#F1F1F1" height="32" id="LongVar" rx="2.5" ry="2.5" style="stroke:#181818;stroke-width:0.5;" width="89" x="382.5" y="191"/><ellipse cx="397.5" cy="207" fill="#B4A7E5" rx="11" ry="11" style="stroke:#181818;stroke-width:1.0;"/><path d="M393.9277,203.2651 L393.9277,201.1069 L401.3071,201.1069 L401.3071,203.2651 L398.8418,203.2651 L398.8418,211.3418 L401.3071,211.3418 L401.3071,213.5 L393.9277,213.5 L393.9277,211.3418 L396.3931,211.3418 L396.3931,203.2651 Z " fill="#000000"/><text fill="#000000" font-family="sans-serif" font-size="14" font-style="italic" lengthAdjust="spacing" textLength="57" x="411.5" y="212.291">LongVar</text></g><!--class DoubleVar--><g id="elem_DoubleVar"><rect codeLine="23" fill="#F1F1F1" height="32" id="DoubleVar" rx="2.5" ry="2.5" style="stroke:#181818;stroke-width:0.5;" width="104" x="535" y="191"/><ellipse cx="550" cy="207" fill="#B4A7E5" rx="11" ry="11" style="stroke:#181818;stroke-width:1.0;"/><path d="M546.4277,203.2651 L546.4277,201.1069 L553.8071,201.1069 L553.8071,203.2651 L551.3418,203.2651 L551.3418,211.3418 L553.8071,211.3418 L553.8071,213.5 L546.4277,213.5 L546.4277,211.3418 L548.8931,211.3418 L548.8931,203.2651 Z " fill="#000000"/><text fill="#000000" font-family="sans-serif" font-size="14" font-style="italic" lengthAdjust="spacing" textLength="72" x="564" y="212.291">DoubleVar</text></g><!--class StringVar--><g id="elem_StringVar"><rect codeLine="24" fill="#F1F1F1" height="32" id="StringVar" rx="2.5" ry="2.5" style="stroke:#181818;stroke-width:0.5;" width="96" x="716" y="191"/><ellipse cx="731" cy="207" fill="#B4A7E5" rx="11" ry="11" style="stroke:#181818;stroke-width:1.0;"/><path d="M727.4277,203.2651 L727.4277,201.1069 L734.8071,201.1069 L734.8071,203.2651 L732.3418,203.2651 L732.3418,211.3418 L734.8071,211.3418 L734.8071,213.5 L727.4277,213.5 L727.4277,211.3418 L729.8931,211.3418 L729.8931,203.2651 Z " fill="#000000"/><text fill="#000000" font-family="sans-serif" font-size="14" font-style="italic" lengthAdjust="spacing" textLength="64" x="745" y="212.291">StringVar</text></g><!--class CachingObjectVar--><g id="elem_CachingObjectVar"><rect codeLine="25" fill="#F1F1F1" height="32" id="CachingObjectVar" rx="2.5" ry="2.5" style="stroke:#181818;stroke-width:0.5;" width="155" x="150.5" y="283"/><ellipse cx="165.5" cy="299" fill="#B4A7E5" rx="11" ry="11" style="stroke:#181818;stroke-width:1.0;"/><path d="M161.9277,295.2651 L161.9277,293.1069 L169.3071,293.1069 L169.3071,295.2651 L166.8418,295.2651 L166.8418,303.3418 L169.3071,303.3418 L169.3071,305.5 L161.9277,305.5 L161.9277,303.3418 L164.3931,303.3418 L164.3931,295.2651 Z " fill="#000000"/><text fill="#000000" font-family="sans-serif" font-size="14" font-style="italic" lengthAdjust="spacing" textLength="123" x="179.5" y="304.291">CachingObjectVar</text></g><!--class CachingLongVar--><g id="elem_CachingLongVar"><rect codeLine="26" fill="#F1F1F1" height="32" id="CachingLongVar" rx="2.5" ry="2.5" style="stroke:#181818;stroke-width:0.5;" width="145" x="340.5" y="283"/><ellipse cx="355.5" cy="299" fill="#B4A7E5" rx="11" ry="11" style="stroke:#181818;stroke-width:1.0;"/><path d="M351.9277,295.2651 L351.9277,293.1069 L359.3071,293.1069 L359.3071,295.2651 L356.8418,295.2651 L356.8418,303.3418 L359.3071,303.3418 L359.3071,305.5 L351.9277,305.5 L351.9277,303.3418 L354.3931,303.3418 L354.3931,295.2651 Z " fill="#000000"/><text fill="#000000" font-family="sans-serif" font-size="14" font-style="italic" lengthAdjust="spacing" textLength="113" x="369.5" y="304.291">CachingLongVar</text></g><!--class CachingDoubleVar--><g id="elem_CachingDoubleVar"><rect codeLine="27" fill="#F1F1F1" height="32" id="CachingDoubleVar" rx="2.5" ry="2.5" style="stroke:#181818;stroke-width:0.5;" width="160" x="521" y="283"/><ellipse cx="536" cy="299" fill="#B4A7E5" rx="11" ry="11" style="stroke:#181818;stroke-width:1.0;"/><path d="M532.4277,295.2651 L532.4277,293.1069 L539.8071,293.1069 L539.8071,295.2651 L537.3418,295.2651 L537.3418,303.3418 L539.8071,303.3418 L539.8071,305.5 L532.4277,305.5 L532.4277,303.3418 L534.8931,303.3418 L534.8931,295.2651 Z " fill="#000000"/><text fill="#000000" font-family="sans-serif" font-size="14" font-style="italic" lengthAdjust="spacing" textLength="128" x="550" y="304.291">CachingDoubleVar</text></g><!--class CachingStringVar--><g id="elem_CachingStringVar"><rect codeLine="28" fill="#F1F1F1" height="32" id="CachingStringVar" rx="2.5" ry="2.5" style="stroke:#181818;stroke-width:0.5;" width="152" x="716" y="283"/><ellipse cx="731" cy="299" fill="#B4A7E5" rx="11" ry="11" style="stroke:#181818;stroke-width:1.0;"/><path d="M727.4277,295.2651 L727.4277,293.1069 L734.8071,293.1069 L734.8071,295.2651 L732.3418,295.2651 L732.3418,303.3418 L734.8071,303.3418 L734.8071,305.5 L727.4277,305.5 L727.4277,303.3418 L729.8931,303.3418 L729.8931,295.2651 Z " fill="#000000"/><text fill="#000000" font-family="sans-serif" font-size="14" font-style="italic" lengthAdjust="spacing" textLength="120" x="745" y="304.291">CachingStringVar</text></g><!--reverse link Metric to Counter--><g id="link_Metric_Counter"><path codeLine="30" d="M243.17,44.54 C197.65,60.99 134.8,83.71 93.55,98.62 " fill="none" id="Metric-backto-Counter" style="stroke:#181818;stroke-width:1.0;"/><polygon fill="none" points="240.53,37.69,261.72,37.47,245.29,50.86,240.53,37.69" style="stroke:#181818;stroke-width:1.0;"/></g><!--reverse link Metric to Histogram--><g id="link_Metric_Histogram"><path codeLine="31" d="M263.29,52 C243.07,67.42 218.76,85.96 202.02,98.73 " fill="none" id="Metric-backto-Histogram" style="stroke:#181818;stroke-width:1.0;"/><polygon fill="none" points="258.57,46.03,278.72,39.47,267.06,57.17,258.57,46.03" style="stroke:#181818;stroke-width:1.0;"/></g><!--reverse link Metric to Rate--><g id="link_Metric_Rate"><path codeLine="32" d="M300,59.97 C300,73.44 300,88.04 300,98.66 " fill="none" id="Metric-backto-Rate" style="stroke:#181818;stroke-width:1.0;"/><polygon fill="none" points="293,60.27,300,40.27,307,60.27,293,60.27" style="stroke:#181818;stroke-width:1.0;"/></g><!--reverse link Metric to Timer--><g id="link_Metric_Timer"><path codeLine="33" d="M332.82,52.96 C350.04,68.16 370.45,86.16 384.61,98.66 " fill="none" id="Metric-backto-Timer" style="stroke:#181818;stroke-width:1.0;"/><polygon fill="none" points="328.67,58.75,318.3,40.27,337.93,48.25,328.67,58.75" style="stroke:#181818;stroke-width:1.0;"/></g><!--reverse link Metric to Var--><g id="link_Metric_Var"><path codeLine="34" d="M354.64,47.76 C392.29,64.13 441.15,85.37 473.25,99.33 " fill="none" id="Metric-backto-Var" style="stroke:#181818;stroke-width:1.0;"/><polygon fill="none" points="352.13,53.87,336.58,39.47,357.72,41.03,352.13,53.87" style="stroke:#181818;stroke-width:1.0;"/></g><!--reverse link Var to ObjectVar--><g id="link_Var_ObjectVar"><path codeLine="35" d="M453.58,136.28 C410.26,152.74 350.12,175.58 310.65,190.56 " fill="none" id="Var-backto-ObjectVar" style="stroke:#181818;stroke-width:1.0;"/><polygon fill="none" points="450.86,129.45,472.04,128.89,455.83,142.54,450.86,129.45" style="stroke:#181818;stroke-width:1.0;"/></g><!--reverse link Var to LongVar--><g id="link_Var_LongVar"><path codeLine="36" d="M479.78,146.63 C466.6,161.46 451.34,178.61 440.64,190.66 " fill="none" id="Var-backto-LongVar" style="stroke:#181818;stroke-width:1.0;"/><polygon fill="none" points="473.91,142.56,492.43,132.27,484.37,151.87,473.91,142.56" style="stroke:#181818;stroke-width:1.0;"/></g><!--reverse link Var to DoubleVar--><g id="link_Var_DoubleVar"><path codeLine="37" d="M534.22,146.63 C547.4,161.46 562.66,178.61 573.36,190.66 " fill="none" id="Var-backto-DoubleVar" style="stroke:#181818;stroke-width:1.0;"/><polygon fill="none" points="529.63,151.87,521.57,132.27,540.09,142.56,529.63,151.87" style="stroke:#181818;stroke-width:1.0;"/></g><!--reverse link Var to StringVar--><g id="link_Var_StringVar"><path codeLine="38" d="M560.67,134.79 C607.98,151.36 676.06,175.2 720.17,190.65 " fill="none" id="Var-backto-StringVar" style="stroke:#181818;stroke-width:1.0;"/><polygon fill="none" points="558.42,141.08,541.86,127.86,563.05,127.86,558.42,141.08" style="stroke:#181818;stroke-width:1.0;"/></g><!--reverse link ObjectVar to CachingObjectVar--><g id="link_ObjectVar_CachingObjectVar"><path codeLine="39" d="M254.13,242.01 C247.6,256.01 240.36,271.52 235.16,282.66 " fill="none" id="ObjectVar-backto-CachingObjectVar" style="stroke:#181818;stroke-width:1.0;"/><polygon fill="none" points="248.07,239.43,262.88,224.27,260.76,245.35,248.07,239.43" style="stroke:#181818;stroke-width:1.0;"/></g><!--reverse link LongVar to CachingLongVar--><g id="link_LongVar_CachingLongVar"><path codeLine="40" d="M421.4,243.97 C419.31,257.44 417.04,272.04 415.39,282.66 " fill="none" id="LongVar-backto-CachingLongVar" style="stroke:#181818;stroke-width:1.0;"/><polygon fill="none" points="414.63,242.95,424.63,224.27,428.47,245.11,414.63,242.95" style="stroke:#181818;stroke-width:1.0;"/></g><!--reverse link DoubleVar to CachingDoubleVar--><g id="link_DoubleVar_CachingDoubleVar"><path codeLine="41" d="M592.6,243.97 C594.69,257.44 596.96,272.04 598.61,282.66 " fill="none" id="DoubleVar-backto-CachingDoubleVar" style="stroke:#181818;stroke-width:1.0;"/><polygon fill="none" points="585.53,245.11,589.37,224.27,599.37,242.95,585.53,245.11" style="stroke:#181818;stroke-width:1.0;"/></g><!--reverse link StringVar to CachingStringVar--><g id="link_StringVar_CachingStringVar"><path codeLine="42" d="M774.89,242.99 C779.16,256.73 783.84,271.78 787.23,282.66 " fill="none" id="StringVar-backto-CachingStringVar" style="stroke:#181818;stroke-width:1.0;"/><polygon fill="none" points="768.01,245.44,768.75,224.27,781.38,241.28,768.01,245.44" style="stroke:#181818;stroke-width:1.0;"/></g><!--SRC=[RP113e8m54JtdA8Nu0R43IvSQ4pKi6_h5seiDQKiI3oynPRVNsJHXBwXCvDHlGFxu1BO2PnLib08QZFEtuGSrE1CQxacxC8TaEjDwUn9mstLx0WuYoT8vp5XHzEtETcRKRmWPrVVR_rVpMNduPPfbFwzex0L4QMKL8HLMFKfIno4iZG9fRzHA0YpK3Ax-nCkgJ-YfJU2r1THwea6iUbg5bP4kqnU8j0vKrCUncGw6QbJTs2WtsvY6hG0Etm1]--></g></svg>