<?xml version="1.0" encoding="us-ascii" standalone="no"?><svg xmlns="http://www.w3.org/2000/svg" xmlns:xlink="http://www.w3.org/1999/xlink" contentStyleType="text/css" height="299px" preserveAspectRatio="none" style="width:211px;height:299px;background:#FFFFFF;" version="1.1" viewBox="0 0 211 299" width="211px" zoomAndPan="magnify"><defs/><g><ellipse cx="105.5" cy="20" fill="#222222" rx="10" ry="10" style="stroke:#222222;stroke-width:1.0;"/><rect fill="#F1F1F1" height="34.1328" rx="12.5" ry="12.5" style="stroke:#181818;stroke-width:0.5;" width="141" x="35" y="50"/><text fill="#000000" font-family="sans-serif" font-size="12" lengthAdjust="spacing" textLength="121" x="45" y="71.6016">Default Configuration</text><rect fill="#F1F1F1" height="34.1328" rx="12.5" ry="12.5" style="stroke:#181818;stroke-width:0.5;" width="184" x="13.5" y="104.1328"/><text fill="#000000" font-family="sans-serif" font-size="12" lengthAdjust="spacing" textLength="164" x="23.5" y="125.7344">MetricRegistry#preConfigure</text><rect fill="#F1F1F1" height="34.1328" rx="12.5" ry="12.5" style="stroke:#181818;stroke-width:0.5;" width="128" x="41.5" y="158.2656"/><text fill="#000000" font-family="sans-serif" font-size="12" lengthAdjust="spacing" textLength="108" x="51.5" y="179.8672">Definition of Metric</text><rect fill="#F1F1F1" height="34.1328" rx="12.5" ry="12.5" style="stroke:#181818;stroke-width:0.5;" width="189" x="11" y="212.3984"/><text fill="#000000" font-family="sans-serif" font-size="12" lengthAdjust="spacing" textLength="169" x="21" y="234">MetricRegistry#postConfigure</text><ellipse cx="105.5" cy="277.5313" fill="none" rx="11" ry="11" style="stroke:#222222;stroke-width:1.0;"/><ellipse cx="105.5" cy="277.5313" fill="#222222" rx="6" ry="6" style="stroke:#111111;stroke-width:1.0;"/><line style="stroke:#181818;stroke-width:1.0;" x1="105.5" x2="105.5" y1="30" y2="50"/><polygon fill="#181818" points="101.5,40,105.5,50,109.5,40,105.5,44" style="stroke:#181818;stroke-width:1.0;"/><line style="stroke:#181818;stroke-width:1.0;" x1="105.5" x2="105.5" y1="84.1328" y2="104.1328"/><polygon fill="#181818" points="101.5,94.1328,105.5,104.1328,109.5,94.1328,105.5,98.1328" style="stroke:#181818;stroke-width:1.0;"/><line style="stroke:#181818;stroke-width:1.0;" x1="105.5" x2="105.5" y1="138.2656" y2="158.2656"/><polygon fill="#181818" points="101.5,148.2656,105.5,158.2656,109.5,148.2656,105.5,152.2656" style="stroke:#181818;stroke-width:1.0;"/><line style="stroke:#181818;stroke-width:1.0;" x1="105.5" x2="105.5" y1="192.3984" y2="212.3984"/><polygon fill="#181818" points="101.5,202.3984,105.5,212.3984,109.5,202.3984,105.5,206.3984" style="stroke:#181818;stroke-width:1.0;"/><line style="stroke:#181818;stroke-width:1.0;" x1="105.5" x2="105.5" y1="246.5313" y2="266.5313"/><polygon fill="#181818" points="101.5,256.5313,105.5,266.5313,109.5,256.5313,105.5,260.5313" style="stroke:#181818;stroke-width:1.0;"/><!--SRC=[Aov9B2hXid99JKiipIbHSCxFIyjCBorABCdCpxFcil9DBIdAJ0vAJSyiBYcgL2ueIeMfIBK6wyhComGfLSXFKu2enQ8flxW4ILTnINu15m00]--></g></svg>